<svg xmlns="http://www.w3.org/2000/svg" viewBox="0 0 48 48">
  <circle cx="24" cy="24" r="20" fill="#E1F5FE"/>
  <path d="M31.5,10l-2.5,2.5L15.6,26l-4,4L9,32.5l3.5,3.5l2.5-2.5l4-4L32.5,15l2.5-2.5L31.5,10z" fill="#7B1FA2"/>
  <path d="M27.5,14l6.5,6.5l-12,12l-6.5-6.5L27.5,14z" fill="#BA68C8"/>
  <path d="M37,19h2v3h-2V19z M37,14h2v3h-2V14z M32,19h2v3h-2V19z M42,19h2v3h-2V19z M34.5,11.67l1.41-1.41l2.12,2.12L36.62,13.8L34.5,11.67z M34.5,23.33l2.12-2.12l1.41,1.41l-2.12,2.12L34.5,23.33z M39.5,16.5l2.12-2.12l1.41,1.41l-2.12,2.12L39.5,16.5z" fill="#FFD54F"/>
  <path d="M22.6,38.3l1.4-3.5l-4.4-4.4l-3.5,1.4L22.6,38.3z" fill="#9575CD"/>
</svg>