<svg xmlns="http://www.w3.org/2000/svg" viewBox="0 0 48 48">
  <path fill="#BBDEFB" d="M36,20c0-6.63-5.37-12-12-12c-5.36,0-9.88,3.51-11.4,8.36C8.48,16.83,5,20.73,5,25.5 C5,31.3,9.7,36,15.5,36h20c3.59,0,6.5-2.91,6.5-6.5C42,25.97,39.48,23.28,36,20z"/>
  <path fill="#2196F3" d="M36,20c0-6.63-5.37-12-12-12c-5.36,0-9.88,3.51-11.4,8.36C8.48,16.83,5,20.73,5,25.5 C5,31.3,9.7,36,15.5,36h20c3.59,0,6.5-2.91,6.5-6.5C42,25.97,39.48,23.28,36,20z M35.5,34h-20C10.81,34,7,30.19,7,25.5 c0-4.41,3.4-8.05,7.73-8.42c0.46-5.06,4.72-9.08,9.96-9.08c5.52,0,10,4.48,10,10c0,0.1-0.01,0.2-0.02,0.3 C37.93,19.89,40,23.05,40,26.5C40,30.64,36.64,34,32.5,34"/>
</svg>
