<svg xmlns="http://www.w3.org/2000/svg" viewBox="0 0 48 48">
  <path fill="#FFB74D" d="M37,42H11c-2.2,0-4-1.8-4-4V10c0-2.2,1.8-4,4-4h26c2.2,0,4,1.8,4,4v28C41,40.2,39.2,42,37,42z"/>
  <path fill="#FF9800" d="M31.5,15h-15C16.2,15,16,14.8,16,14.5v-3C16,11.2,16.2,11,16.5,11h15c0.3,0,0.5,0.2,0.5,0.5v3C32,14.8,31.8,15,31.5,15z"/>
  <g fill="#455A64">
    <path d="M17,23h-2c-0.6,0-1-0.4-1-1v-2c0-0.6,0.4-1,1-1h2c0.6,0,1,0.4,1,1v2C18,22.6,17.6,23,17,23z"/>
    <path d="M17,29h-2c-0.6,0-1-0.4-1-1v-2c0-0.6,0.4-1,1-1h2c0.6,0,1,0.4,1,1v2C18,28.6,17.6,29,17,29z"/>
    <path d="M17,35h-2c-0.6,0-1-0.4-1-1v-2c0-0.6,0.4-1,1-1h2c0.6,0,1,0.4,1,1v2C18,34.6,17.6,35,17,35z"/>
  </g>
  <g fill="#FFF">
    <path d="M21.6,22.2c-0.2,0-0.4-0.1-0.5-0.2l-1.3-1.3c-0.3-0.3-0.3-0.8,0-1.1s0.8-0.3,1.1,0l0.8,0.8l1.8-1.8c0.3-0.3,0.8-0.3,1.1,0s0.3,0.8,0,1.1l-2.3,2.3C22,22.1,21.8,22.2,21.6,22.2z"/>
    <path d="M21.6,28.2c-0.2,0-0.4-0.1-0.5-0.2l-1.3-1.3c-0.3-0.3-0.3-0.8,0-1.1s0.8-0.3,1.1,0l0.8,0.8l1.8-1.8c0.3-0.3,0.8-0.3,1.1,0s0.3,0.8,0,1.1l-2.3,2.3C22,28.1,21.8,28.2,21.6,28.2z"/>
    <path d="M21.6,34.2c-0.2,0-0.4-0.1-0.5-0.2l-1.3-1.3c-0.3-0.3-0.3-0.8,0-1.1s0.8-0.3,1.1,0l0.8,0.8l1.8-1.8c0.3-0.3,0.8-0.3,1.1,0s0.3,0.8,0,1.1l-2.3,2.3C22,34.1,21.8,34.2,21.6,34.2z"/>
  </g>
  <g fill="#37474F">
    <path d="M28.6,22h-1.2c-0.4,0-0.7-0.3-0.7-0.7c0-0.4,0.3-0.7,0.7-0.7h1.2c0.4,0,0.7,0.3,0.7,0.7C29.3,21.7,29,22,28.6,22z"/>
    <path d="M33.2,22h-1.2c-0.4,0-0.7-0.3-0.7-0.7c0-0.4,0.3-0.7,0.7-0.7h1.2c0.4,0,0.7,0.3,0.7,0.7C33.9,21.7,33.6,22,33.2,22z"/>
    <path d="M28.6,28h-1.2c-0.4,0-0.7-0.3-0.7-0.7c0-0.4,0.3-0.7,0.7-0.7h1.2c0.4,0,0.7,0.3,0.7,0.7C29.3,27.7,29,28,28.6,28z"/>
    <path d="M33.2,28h-1.2c-0.4,0-0.7-0.3-0.7-0.7c0-0.4,0.3-0.7,0.7-0.7h1.2c0.4,0,0.7,0.3,0.7,0.7C33.9,27.7,33.6,28,33.2,28z"/>
    <path d="M28.6,34h-1.2c-0.4,0-0.7-0.3-0.7-0.7c0-0.4,0.3-0.7,0.7-0.7h1.2c0.4,0,0.7,0.3,0.7,0.7C29.3,33.7,29,34,28.6,34z"/>
    <path d="M33.2,34h-1.2c-0.4,0-0.7-0.3-0.7-0.7c0-0.4,0.3-0.7,0.7-0.7h1.2c0.4,0,0.7,0.3,0.7,0.7C33.9,33.7,33.6,34,33.2,34z"/>
  </g>
</svg>
