<svg width="40" height="40" viewBox="0 0 40 40" fill="none" xmlns="http://www.w3.org/2000/svg">
  <rect width="40" height="40" rx="8" fill="#4A6CF7"/>
  <path d="M15.0938 28V13.2812H21.1875C22.6562 13.2812 23.875 13.5729 24.8438 14.1562C25.8125 14.7396 26.5312 15.5417 27 16.5625C27.4792 17.5833 27.7188 18.7604 27.7188 20.0938C27.7188 21.4271 27.4792 22.6042 27 23.625C26.5312 24.6458 25.8125 25.4479 24.8438 26.0312C23.875 26.6146 22.6562 26.9062 21.1875 26.9062H16.8281V24.5938H20.8906C21.8281 24.5938 22.5729 24.4062 23.125 24.0312C23.6771 23.6562 24.0729 23.1354 24.3125 22.4688C24.5521 21.7917 24.6719 20.9896 24.6719 20.0625C24.6719 19.1354 24.5521 18.3333 24.3125 17.6562C24.0729 16.9792 23.6771 16.4583 23.125 16.0938C22.5729 15.7188 21.8281 15.5312 20.8906 15.5312H18.1875V28H15.0938Z" fill="white"/>
</svg> 